<?xml version="1.0" standalone="no"?>
<!DOCTYPE svg PUBLIC "-//W3C//DTD SVG 20010904//EN"
 "http://www.w3.org/TR/2001/REC-SVG-20010904/DTD/svg10.dtd">
<svg version="1.0" xmlns="http://www.w3.org/2000/svg"
 width="400.000000pt" height="400.000000pt" viewBox="0 0 400.000000 400.000000"
 preserveAspectRatio="xMidYMid meet">
<metadata>
Created by potrace 1.14, written by Peter Selinger 2001-2017
</metadata>
<g transform="translate(0.000000,400.000000) scale(0.100000,-0.100000)"
fill="#000000" stroke="none">
<path d="M1957 3955 c-1 -2 -42 -5 -92 -9 -115 -8 -259 -32 -368 -60 -401
-105 -782 -358 -1035 -686 -23 -30 -45 -59 -50 -65 -13 -17 -77 -117 -108
-170 -91 -156 -189 -411 -211 -550 -2 -16 -8 -46 -13 -65 -5 -19 -12 -66 -16
-105 -3 -38 -8 -79 -10 -90 -7 -31 -6 -263 1 -325 16 -156 44 -295 84 -425 25
-79 79 -214 97 -243 8 -12 12 -22 10 -22 -3 0 17 -39 44 -86 28 -47 50 -88 50
-90 0 -3 5 -10 10 -17 6 -7 45 -59 87 -117 43 -58 122 -150 178 -205 155 -155
207 -195 430 -332 142 -87 429 -190 614 -219 18 -3 43 -8 55 -10 111 -23 482
-22 576 1 14 3 41 8 60 9 52 6 225 52 305 82 39 14 83 31 99 37 42 15 193 91
241 122 22 14 47 28 55 32 8 3 65 43 125 89 110 82 211 175 293 269 24 28 52
59 62 71 51 57 173 253 227 364 52 107 103 234 118 297 3 10 14 52 25 93 11
41 22 95 26 120 3 25 9 61 13 80 20 92 17 456 -4 560 -3 14 -7 39 -9 55 -9 69
-55 236 -96 345 -153 412 -476 789 -861 1006 -164 92 -408 187 -539 210 -14 2
-45 8 -70 14 -76 16 -392 43 -403 35z"/>
</g>
</svg>
